<?xml version="1.0" encoding="UTF-8" standalone="no"?>
<!DOCTYPE svg PUBLIC "-//W3C//DTD SVG 1.1//EN" "http://www.w3.org/Graphics/SVG/1.1/DTD/svg11.dtd">
<svg width="100%" height="100%" viewBox="0 0 1000 1000" version="1.1" xmlns="http://www.w3.org/2000/svg" xmlns:xlink="http://www.w3.org/1999/xlink" xml:space="preserve" xmlns:serif="http://www.serif.com/" style="fill-rule:evenodd;clip-rule:evenodd;stroke-linecap:round;stroke-linejoin:round;stroke-miterlimit:1.5;">
    <g id="_1" serif:id="1">
        <g id="leg_back">
            <path d="M481.978,581.345l60.118,87.023l14.456,135.059l49.254,33.621l-78.776,-4.63l-20.065,-141.157l-87.564,-73.841l62.577,-36.075Z" style="fill:#ebebeb;stroke:#000;stroke-width:1px;"/>
            <path d="M387.893,549.369l-0,54.63l59.174,60.409l79.963,-51.889l-65.041,-71.881l-74.096,8.731Z" style="fill:#ebebeb;stroke:#000;stroke-width:1px;"/>
        </g>
        <g id="arm_back">
            <path d="M438.561,384.86l98.681,126.946l133.14,-85.781l-17.924,-36.343l-100.144,67.926l-47.889,-91.44l-42.035,-25.414l-23.829,44.106Z" style="fill:#ebebeb;stroke:#000;stroke-width:1px;"/>
            <path d="M616.165,413.459l18.52,25.068l53.383,-10.456l36.53,-39.825l-48.958,-57.201l-55.872,26.765l-3.603,55.649Z" style="fill:#ebebeb;stroke:#000;stroke-width:1px;"/>
            <path d="M596.398,425.301l32.229,30.18l28.14,-20.674l-40.059,-33.859l-20.31,24.353Z" style="fill:#ebebeb;stroke:#000;stroke-width:1px;"/>
        </g>
        <g id="leg_front">
            <path d="M315.339,592.45l72.554,115.716l-59.175,155.146l82.279,3.391l-37.229,-24.383l73.299,-134.154l-48.211,-116.523l-83.517,0.807Z" style="fill:#ebebeb;stroke:#000;stroke-width:1px;"/>
            <path d="M328.718,527.904l-13.379,30.908l-9.191,43.711l49.109,88.05l91.81,-50.942l-47.247,-98.993l-71.102,-12.734Z" style="fill:#ebebeb;stroke:#000;stroke-width:1px;"/>
        </g>
        <g id="torso">
            <path d="M328.718,527.904l73.598,30.908l55.145,-8.681l54.939,-171.037l-28.228,-37.381l-51.04,-14.907l-45.239,21.38l-59.175,179.718Z" style="fill:#ebebeb;stroke:#000;stroke-width:1px;"/>
        </g>
        <g id="head">
            <path d="M667.464,159.807l-79.61,261.619l-261.619,-79.61l79.609,-261.619l261.62,79.61Z" style="fill:#ebebeb;stroke:#000;stroke-width:1px;"/>
        </g>
        <g id="arm_front">
            <path d="M381.203,397.299l38.198,104.331l132.913,-21.379l-6.108,-37.442l-88.745,9.464l-10.394,-73.666l-42.035,-25.413l-23.829,44.105Z" style="fill:#ebebeb;stroke:#000;stroke-width:1px;"/>
            <path d="M544.978,444.778l4.479,30.843l51.99,16.006l51.011,-17.84l-16.124,-73.545l-61.888,-2.808l-29.468,47.344Z" style="fill:#ebebeb;stroke:#000;stroke-width:1px;"/>
            <path d="M512.265,441.844l6.863,47.347l43.091,-4.893l-8.551,-58.273l-41.403,15.819Z" style="fill:#ebebeb;stroke:#000;stroke-width:1px;"/>
        </g>
    </g>
</svg>