<?xml version="1.0" encoding="UTF-8" standalone="no"?><!DOCTYPE svg PUBLIC "-//W3C//DTD SVG 1.1//EN" "http://www.w3.org/Graphics/SVG/1.1/DTD/svg11.dtd"><svg width="100%" height="100%" viewBox="0 0 200 200" version="1.1" xmlns="http://www.w3.org/2000/svg" xmlns:xlink="http://www.w3.org/1999/xlink" xml:space="preserve" xmlns:serif="http://www.serif.com/" style="fill-rule:evenodd;clip-rule:evenodd;stroke-linejoin:round;stroke-miterlimit:2;"><path d="M55.137,116.24c-9.611,8.907 -6.002,11.375 -6.617,16.391c-3.802,31.014 -43.019,23.854 -44.124,0.493c-0.058,-1.22 -0.168,-3.558 0.6,-15.261c1.784,-27.183 -10.476,-33.755 -1.227,-50.965c3.529,-6.566 25.58,-29.475 55.574,-12.658c1.883,1.056 2.993,3.657 5.132,3.951c0.757,0.104 24.981,-22.258 40.721,10.111c2.097,-2.471 4.001,-5.102 6.098,-7.573c10.441,-12.305 13.174,-5.906 29.26,-4.935c2.708,-1.544 4.56,-4.341 7.268,-5.885c7.064,-4.028 7.315,-1.114 17.604,1.072c62.282,-27.024 27.811,95.373 -16.15,80.251c-1.613,-0.555 -1.883,-2.71 -4.723,0.197c-9.417,9.641 -23.429,6.134 -25.524,5.005c-3.447,-1.858 -5.629,-5.6 -9.076,-7.458c-2.132,0.271 -4.343,3.126 -15.165,1.928c-2.001,-0.222 -11.717,13.663 -26.754,6.943c-12.847,-5.742 -14.331,-26.359 -12.897,-21.607"/><path d="M22.645,68.568c3.829,-2.36 8.434,-3.536 12.712,-5.206c0.169,-0.065 0.348,-0.1 0.529,-0.102c11.622,-0.131 21.611,5.868 24.22,15.782c1.928,7.321 -1.993,13.22 -7.088,18.182c-5.65,5.501 -11.57,10.739 -17.245,16.217c-0.724,0.699 -1.258,1.847 -1.363,2.838c-0.546,5.175 -0.897,10.373 -1.163,15.57c-0.096,1.867 -0.567,3.331 -1.465,4.375c-0.936,1.087 -2.355,1.793 -4.516,1.894c-2.515,0.117 -4.603,-0.572 -5.939,-1.916c-0.956,-0.961 -1.568,-2.264 -1.662,-3.938c-0.25,-4.471 0.329,-8.989 0.597,-13.485c0.296,-4.937 0.864,-9.872 0.852,-14.807c-0.004,-1.876 -0.946,-3.815 -1.758,-5.594c-3.163,-6.922 -5.462,-14.109 -3.281,-21.58c0.917,-3.142 3.687,-6.451 6.57,-8.23Zm13.221,5.664l-0.629,21.869c4.937,-3.746 8.645,-7.858 11.733,-12.48c0.966,-1.446 1.367,-2.839 1.093,-4.126c-0.275,-1.292 -1.218,-2.421 -2.712,-3.377c-3.066,-1.962 -6.482,-2.682 -9.485,-1.886Z" style="fill:#fff;"/><path d="M100.59,97.274c1.832,-2.442 3.483,-4.714 5.325,-6.827c5.001,-5.736 10.154,-11.348 15.252,-17.006c0.29,-0.322 0.66,-0.628 1.018,-0.93c0.169,-0.144 0.429,-0.411 0.493,-0.477c0.333,-1.524 1.001,-2.522 1.8,-3.184c1.756,-1.452 4.384,-1.225 6.364,-0.766c1.316,0.304 2.937,1.357 4.063,2.615c0.837,0.934 1.387,1.981 1.508,2.881c0.886,6.573 1.615,13.278 1.243,19.871c-0.441,7.8 -2.507,15.513 -2.975,23.314c-0.13,2.162 -0.708,3.554 -1.528,4.471c-1.235,1.381 -3.14,1.798 -5.632,1.746c-1.872,-0.04 -3.734,-1.078 -5.035,-2.619c-1.3,-1.54 -2.013,-3.551 -1.738,-5.413c1.051,-7.112 2.262,-14.199 3.352,-21.305c0.415,-2.708 0.751,-5.427 1.1,-8.144c-1.389,1.315 -2.799,2.617 -3.839,4.155c-5.105,7.547 -9.872,15.311 -14.983,22.853c-1.158,1.709 -3.52,3.453 -5.463,3.642c-3.878,0.375 -7.082,-1.659 -8.55,-5.305c-1.877,-4.661 -3.527,-9.409 -5.29,-14.113c-1.539,7.426 -2.985,14.426 -4.458,21.419c-0.677,3.221 -2.134,6.146 -6.03,6.352c-1.301,0.069 -2.79,-0.735 -3.975,-2.122c-1.547,-1.808 -2.555,-4.519 -2.241,-6.392c2.142,-12.734 4.318,-25.465 6.395,-38.211c0.067,-0.416 0.093,-0.913 0.039,-1.378c-0.034,-0.289 -0.067,-0.575 -0.219,-0.754c-2.715,-3.209 -2.254,-7.116 0.867,-8.477c2.446,-1.067 5.985,-0.365 8.901,0.256c0.547,0.117 1.103,0.426 1.609,0.91c0.794,0.758 1.502,2.01 1.922,3.005c3.635,8.617 7.145,17.285 10.705,25.933Z" style="fill:#fff;"/><path d="M160.678,76.596c-2.264,7.433 -4.275,18.422 -2.539,26.305c7.369,-10.21 14.751,-19.76 12.978,-32.886c-0.46,-3.413 0.937,-5.813 3.712,-7.116c1.253,-0.588 3.136,-1.079 4.552,-1.025c0.872,0.033 1.603,0.275 2.107,0.659c1.745,1.327 3.07,4.118 3.209,6.372c0.856,13.724 -4.412,25.49 -12.839,36.151c-2.325,2.941 -4.507,6.001 -6.992,8.81c-2.423,2.738 -5.308,3.856 -8.057,3.573c-2.72,-0.281 -5.378,-1.952 -7.356,-5.056c-3.536,-5.547 -4.217,-11.807 -3.94,-18.012c0.419,-9.36 1.836,-18.631 5.858,-27.302c0.409,-0.881 1.119,-2.009 1.849,-2.647c0.274,-0.24 0.557,-0.424 0.834,-0.547l0.779,-0.207c1.669,-0.151 3.996,0.621 5.1,1.809c2.044,2.199 2.296,4.569 1.874,6.988c-0.24,1.374 -0.713,2.765 -1.129,4.131Z" style="fill:#fff;"/></svg>