<?xml version="1.0" encoding="UTF-8" standalone="no"?><!DOCTYPE svg PUBLIC "-//W3C//DTD SVG 1.1//EN" "http://www.w3.org/Graphics/SVG/1.1/DTD/svg11.dtd"><svg width="100%" height="100%" viewBox="0 0 200 200" version="1.1" xmlns="http://www.w3.org/2000/svg" xmlns:xlink="http://www.w3.org/1999/xlink" xml:space="preserve" xmlns:serif="http://www.serif.com/" style="fill-rule:evenodd;clip-rule:evenodd;stroke-linejoin:round;stroke-miterlimit:2;"><g><path d="M23.432,69.845c-2.588,1.597 -5.094,4.553 -5.917,7.374c-2.077,7.113 0.194,13.945 3.206,20.536c0.899,1.971 1.889,4.136 1.893,6.214c0.012,4.966 -0.556,9.932 -0.855,14.9c-0.264,4.438 -0.843,8.897 -0.596,13.311c0.176,3.14 2.656,4.596 6.033,4.439c3.278,-0.152 4.402,-1.897 4.553,-4.846c0.268,-5.225 0.621,-10.45 1.169,-15.652c0.14,-1.314 0.853,-2.832 1.814,-3.759c5.673,-5.477 11.591,-10.713 17.24,-16.213c4.702,-4.58 8.463,-9.968 6.684,-16.725c-2.444,-9.284 -11.871,-14.787 -22.754,-14.664c-4.194,1.636 -8.716,2.771 -12.47,5.085Zm10.965,3.288c3.626,-1.394 7.94,-0.725 11.763,1.721c3.785,2.424 4.516,5.92 2.057,9.601c-3.676,5.503 -8.208,10.304 -14.566,14.632c0.259,-9.04 0.746,-25.954 0.746,-25.954Zm-9.281,6.822c-0.359,3.682 -0.718,7.365 -1.077,11.046c-2.198,-3.893 -1.683,-7.563 1.077,-11.046Z" style="fill:#fff;fill-rule:nonzero;"/><path d="M49.251,121.722c-0.316,3.631 -0.544,7.27 -0.731,10.909l-1.523,7.476l-3.627,6.096l-6.108,4.802l-3.96,1.548l-5.327,0.842l-4.862,-0.221l-5.355,-1.411l-3.725,-1.911l-3.55,-2.866l-4.422,-6.596l-1.665,-7.266l-0,-0.006c-0.283,-5.055 0.297,-10.165 0.6,-15.248l0,-0.007c0.247,-4.108 0.716,-8.212 0.809,-12.317c-0.125,-0.289 -0.262,-0.601 -0.358,-0.811c-4.706,-10.298 -7.297,-21.108 -4.053,-32.222l2.375,-5.615l3.028,-4.438l3.555,-3.718l4.264,-3.19l0.003,-0.001c4.595,-2.834 10.045,-4.432 15.18,-6.436c1.886,-0.736 3.89,-1.124 5.914,-1.147c19.172,-0.216 34.878,10.826 39.183,27.181c3.445,13.085 -2.101,24.161 -11.207,33.03l-0.002,0.002c-4.724,4.599 -9.636,9.016 -14.436,13.541Zm-25.819,-51.877c-2.588,1.597 -5.094,4.553 -5.917,7.374c-2.077,7.113 0.194,13.945 3.206,20.536c0.899,1.971 1.889,4.136 1.893,6.214c0.012,4.966 -0.556,9.932 -0.855,14.9c-0.264,4.438 -0.843,8.897 -0.596,13.311c0.176,3.14 2.656,4.596 6.033,4.439c3.278,-0.152 4.402,-1.897 4.553,-4.846c0.268,-5.225 0.621,-10.45 1.169,-15.652c0.14,-1.314 0.853,-2.832 1.814,-3.759c5.673,-5.477 11.591,-10.713 17.24,-16.213c4.702,-4.58 8.463,-9.968 6.684,-16.725c-2.444,-9.284 -11.871,-14.787 -22.754,-14.664c-4.194,1.636 -8.716,2.771 -12.47,5.085Zm1.684,10.11l-1.077,11.046c-2.198,-3.893 -1.683,-7.563 1.077,-11.046Zm9.281,-6.822c3.626,-1.394 7.94,-0.725 11.763,1.721c3.785,2.424 4.516,5.92 2.057,9.601c-3.676,5.503 -8.208,10.304 -14.566,14.632l0.746,-25.954Z"/><path d="M126.972,83.511c-0.46,3.453 -0.861,6.917 -1.389,10.361c-1.09,7.103 -2.301,14.188 -3.351,21.297c-0.431,2.916 2.391,6.25 5.321,6.313c3.276,0.069 5.374,-0.527 5.631,-4.807c0.468,-7.799 2.534,-15.51 2.975,-23.308c0.366,-6.499 -0.36,-13.107 -1.232,-19.587c-0.221,-1.64 -2.64,-3.822 -4.423,-4.235c-2.247,-0.52 -5.575,-0.968 -6.375,2.876c-0.159,0.764 -1.228,1.336 -1.848,2.024c-5.092,5.652 -10.24,11.258 -15.235,16.988c-2.284,2.619 -4.269,5.485 -6.68,8.618c-0.624,-1.156 -0.907,-1.582 -1.097,-2.044c-3.58,-8.698 -7.11,-17.416 -10.766,-26.083c-0.498,-1.179 -1.447,-2.815 -2.461,-3.031c-2.619,-0.557 -5.792,-1.307 -7.989,-0.348c-2.249,0.981 -2.279,3.82 -0.322,6.133c0.639,0.757 0.692,2.259 0.515,3.342c-2.077,12.749 -4.253,25.482 -6.396,38.219c-0.426,2.538 2.357,6.888 4.658,6.767c3.088,-0.164 4.104,-2.61 4.641,-5.163c1.784,-8.47 3.529,-16.951 5.448,-26.188c0.737,1.763 1.302,3.003 1.779,4.274c1.798,4.784 3.471,9.615 5.38,14.357c1.206,2.995 3.829,4.68 7.014,4.372c1.566,-0.152 3.433,-1.612 4.367,-2.99c5.11,-7.543 9.877,-15.306 14.981,-22.853c1.492,-2.205 3.705,-3.953 5.588,-5.909c0.421,0.201 1.266,0.605 1.266,0.605Z" style="fill:#fff;fill-rule:nonzero;"/><path d="M61.108,78.76l-1.147,-3.247l-0.442,-4.293l0.574,-4.752l1.501,-4.098l2.524,-3.845l3.38,-3.163l3.84,-2.209l8.25,-1.841c3.173,-0.126 6.807,0.487 9.949,1.156l4.768,1.743l4.226,3.07l3.172,3.838l2.27,4.272l0.004,0.007c0.408,0.968 0.814,1.936 1.219,2.904c1.537,-1.698 3.075,-3.395 4.608,-5.097l0.215,-0.203l1.275,-2.273l3.434,-3.661l4.034,-2.589l6.721,-1.925l8.806,0.631l6.064,2.445l5.945,4.867l3.472,5.128l1.8,5.911l-0,0.003c1.014,7.532 1.781,15.218 1.355,22.772l0,0.004c-0.442,7.817 -2.509,15.547 -2.978,23.366l-0,0.002l-1.722,7.856l-3.672,5.89l-4.168,3.536l-4.348,2.082l-8.839,1.224l-0.003,0l-8.166,-1.837l-4.622,-2.755l-3.608,-3.452l-0.846,-1.251l-3.177,1.47l-4.382,0.927l-0.009,0.001l-7.597,-0.47l-1.227,-0.507l-2.524,3.487l-6.331,4.217l-7.31,1.675l-0.003,-0l-4.325,-0.276l-5.034,-1.653l-3.502,-2.162l-3.542,-3.363l-2.977,-4.318l-2.069,-4.944l-0.899,-5.119l0.243,-4.48l0.002,-0.008c1.945,-11.562 3.917,-23.122 5.818,-34.693Zm65.864,4.751c-0.46,3.453 -0.861,6.917 -1.389,10.361c-1.09,7.103 -2.301,14.188 -3.351,21.297c-0.431,2.916 2.391,6.25 5.321,6.313c3.276,0.069 5.374,-0.527 5.631,-4.807c0.468,-7.799 2.534,-15.51 2.975,-23.308c0.366,-6.499 -0.36,-13.107 -1.232,-19.587c-0.221,-1.64 -2.64,-3.822 -4.423,-4.235c-2.247,-0.52 -5.575,-0.968 -6.375,2.876c-0.159,0.764 -1.228,1.336 -1.848,2.024c-5.092,5.652 -10.24,11.258 -15.235,16.988c-2.284,2.619 -4.269,5.485 -6.68,8.618c-0.624,-1.156 -0.907,-1.582 -1.097,-2.044c-3.58,-8.698 -7.11,-17.416 -10.766,-26.083c-0.498,-1.179 -1.447,-2.815 -2.461,-3.031c-2.619,-0.557 -5.792,-1.307 -7.989,-0.348c-2.249,0.981 -2.279,3.82 -0.322,6.133c0.639,0.757 0.692,2.259 0.515,3.342c-2.077,12.749 -4.253,25.482 -6.396,38.219c-0.426,2.538 2.357,6.888 4.658,6.767c3.088,-0.164 4.104,-2.61 4.641,-5.163c1.784,-8.47 3.529,-16.951 5.448,-26.188c0.737,1.763 1.302,3.003 1.779,4.274c1.798,4.784 3.471,9.615 5.38,14.357c1.206,2.995 3.829,4.68 7.014,4.372c1.566,-0.152 3.433,-1.612 4.367,-2.99c5.11,-7.543 9.877,-15.306 14.981,-22.853c1.492,-2.205 3.705,-3.953 5.588,-5.909l1.266,0.605Zm-15.681,-21.714l1.014,-0.96c-0.362,0.306 -0.7,0.627 -1.014,0.96Zm-18.599,6.054c-0.388,-1.376 -1.063,-2.743 -2.13,-4.007l2.13,4.007Z"/><path d="M159.243,76.159c0.995,-3.269 2.37,-6.672 -0.408,-9.66c-0.836,-0.899 -2.605,-1.452 -3.867,-1.337c-0.832,0.075 -1.764,1.522 -2.236,2.538c-3.938,8.491 -5.31,17.572 -5.721,26.738c-0.263,5.901 0.344,11.863 3.707,17.139c3.378,5.3 8.932,5.92 13.025,1.295c2.467,-2.788 4.631,-5.827 6.938,-8.747c8.192,-10.363 13.352,-21.786 12.519,-35.127c-0.115,-1.86 -1.18,-4.177 -2.62,-5.271c-0.993,-0.758 -3.595,-0.182 -5.114,0.53c-2.162,1.015 -3.221,2.899 -2.863,5.557c1.971,14.589 -6.901,24.947 -15.022,36.445c-3.18,-8.14 -0.972,-21.451 1.662,-30.1Z" style="fill:#fff;fill-rule:nonzero;"/><path d="M165.426,50.981l2.901,-1.924l0.013,-0.007l6.155,-2.004l5.467,-0.455l5.59,1.015l5.202,2.763l3.526,3.379l3.212,4.99l1.627,4.287l0.842,4.94c1.097,17.629 -5.28,32.879 -16.105,46.574c-2.5,3.163 -4.864,6.441 -7.537,9.461l-4.054,3.764l-5.002,2.954l-5.818,1.744l-6.204,0.189l-5.965,-1.419l-5.21,-2.744l-4.235,-3.655l-3.274,-4.229c-5.302,-8.318 -6.737,-17.61 -6.322,-26.915l-0,-0.003c0.508,-11.343 2.389,-22.543 7.263,-33.052l2.38,-4.09l3.275,-3.635l4.669,-3l5.633,-1.471l4.853,0.126l4.091,0.964l3.027,1.453Zm-6.183,25.178c0.995,-3.269 2.37,-6.672 -0.408,-9.66c-0.836,-0.899 -2.605,-1.452 -3.867,-1.337c-0.832,0.075 -1.764,1.522 -2.236,2.538c-3.938,8.491 -5.31,17.572 -5.721,26.738c-0.263,5.901 0.344,11.863 3.707,17.139c3.378,5.3 8.932,5.92 13.025,1.295c2.467,-2.788 4.631,-5.827 6.938,-8.747c8.192,-10.363 13.352,-21.786 12.519,-35.127c-0.115,-1.86 -1.18,-4.177 -2.62,-5.271c-0.993,-0.758 -3.595,-0.182 -5.114,0.53c-2.162,1.015 -3.221,2.899 -2.863,5.557c1.971,14.589 -6.901,24.947 -15.022,36.445c-3.18,-8.14 -0.972,-21.451 1.662,-30.1Z"/><path d="M159.243,76.159c0.995,-3.269 2.37,-6.672 -0.408,-9.66c-0.836,-0.899 -2.605,-1.452 -3.867,-1.337c-0.832,0.075 -1.764,1.522 -2.236,2.538c-3.938,8.491 -5.31,17.572 -5.721,26.738c-0.263,5.901 0.344,11.863 3.707,17.139c3.378,5.3 8.932,5.92 13.025,1.295c2.467,-2.788 4.631,-5.827 6.938,-8.747c8.192,-10.363 13.352,-21.786 12.519,-35.127c-0.115,-1.86 -1.18,-4.177 -2.62,-5.271c-0.993,-0.758 -3.595,-0.182 -5.114,0.53c-2.162,1.015 -3.221,2.899 -2.863,5.557c1.971,14.589 -6.901,24.947 -15.022,36.445c-3.18,-8.14 -0.972,-21.451 1.662,-30.1Z" style="fill:#fff;fill-rule:nonzero;"/><path d="M160.678,76.596c-2.264,7.433 -4.275,18.422 -2.539,26.305c7.369,-10.21 14.751,-19.76 12.978,-32.886c-0.46,-3.413 0.937,-5.813 3.712,-7.116c1.253,-0.588 3.136,-1.079 4.552,-1.025c0.872,0.033 1.603,0.275 2.107,0.659c1.745,1.327 3.07,4.118 3.209,6.372c0.856,13.724 -4.412,25.49 -12.839,36.151c-2.325,2.941 -4.507,6.001 -6.992,8.81c-2.423,2.738 -5.308,3.856 -8.057,3.573c-2.72,-0.281 -5.378,-1.952 -7.356,-5.056c-3.536,-5.547 -4.217,-11.807 -3.94,-18.012c0.419,-9.36 1.836,-18.631 5.858,-27.302c0.409,-0.881 1.119,-2.009 1.849,-2.647c0.274,-0.24 0.557,-0.424 0.834,-0.547l0.779,-0.207c1.669,-0.151 3.996,0.621 5.1,1.809c2.044,2.199 2.296,4.569 1.874,6.988c-0.24,1.374 -0.713,2.765 -1.129,4.131Zm-1.435,-0.437c0.995,-3.269 2.37,-6.672 -0.408,-9.66c-0.836,-0.899 -2.605,-1.452 -3.867,-1.337c-0.832,0.075 -1.764,1.522 -2.236,2.538c-3.938,8.491 -5.31,17.572 -5.721,26.738c-0.263,5.901 0.344,11.863 3.707,17.139c3.378,5.3 8.932,5.92 13.025,1.295c2.467,-2.788 4.631,-5.827 6.938,-8.747c8.192,-10.363 13.352,-21.786 12.519,-35.127c-0.115,-1.86 -1.18,-4.177 -2.62,-5.271c-0.993,-0.758 -3.595,-0.182 -5.114,0.53c-2.162,1.015 -3.221,2.899 -2.863,5.557c1.971,14.589 -6.901,24.947 -15.022,36.445c-3.18,-8.14 -0.972,-21.451 1.662,-30.1Z" style="fill:#fff;"/><path d="M23.432,69.845c-2.588,1.597 -5.094,4.553 -5.917,7.374c-2.077,7.113 0.194,13.945 3.206,20.536c0.899,1.971 1.889,4.136 1.893,6.214c0.012,4.966 -0.556,9.932 -0.855,14.9c-0.264,4.438 -0.843,8.897 -0.596,13.311c0.176,3.14 2.656,4.596 6.033,4.439c3.278,-0.152 4.402,-1.897 4.553,-4.846c0.268,-5.225 0.621,-10.45 1.169,-15.652c0.14,-1.314 0.853,-2.832 1.814,-3.759c5.673,-5.477 11.591,-10.713 17.24,-16.213c4.702,-4.58 8.463,-9.968 6.684,-16.725c-2.444,-9.284 -11.871,-14.787 -22.754,-14.664c-4.194,1.636 -8.716,2.771 -12.47,5.085Zm10.965,3.288c3.626,-1.394 7.94,-0.725 11.763,1.721c3.785,2.424 4.516,5.92 2.057,9.601c-3.676,5.503 -8.208,10.304 -14.566,14.632c0.259,-9.04 0.746,-25.954 0.746,-25.954Zm-9.281,6.822c-0.359,3.682 -0.718,7.365 -1.077,11.046c-2.198,-3.893 -1.683,-7.563 1.077,-11.046Z" style="fill:#fff;fill-rule:nonzero;"/><path d="M22.645,68.568c3.829,-2.36 8.434,-3.536 12.712,-5.206c0.169,-0.065 0.348,-0.1 0.529,-0.102c11.622,-0.131 21.611,5.868 24.22,15.782c1.928,7.321 -1.993,13.22 -7.088,18.182c-5.65,5.501 -11.57,10.739 -17.245,16.217c-0.724,0.699 -1.258,1.847 -1.363,2.838c-0.546,5.175 -0.897,10.373 -1.163,15.57c-0.096,1.867 -0.567,3.331 -1.465,4.375c-0.936,1.087 -2.355,1.793 -4.516,1.894c-2.515,0.117 -4.603,-0.572 -5.939,-1.916c-0.956,-0.961 -1.568,-2.264 -1.662,-3.938c-0.25,-4.471 0.329,-8.989 0.597,-13.485c0.296,-4.937 0.864,-9.872 0.852,-14.807c-0.004,-1.876 -0.946,-3.815 -1.758,-5.594c-3.163,-6.922 -5.462,-14.109 -3.281,-21.58c0.917,-3.142 3.687,-6.451 6.57,-8.23Zm0.787,1.277c-2.588,1.597 -5.094,4.553 -5.917,7.374c-2.077,7.113 0.194,13.945 3.206,20.536c0.899,1.971 1.889,4.136 1.893,6.214c0.012,4.966 -0.556,9.932 -0.855,14.9c-0.264,4.438 -0.843,8.897 -0.596,13.311c0.176,3.14 2.656,4.596 6.033,4.439c3.278,-0.152 4.402,-1.897 4.553,-4.846c0.268,-5.225 0.621,-10.45 1.169,-15.652c0.14,-1.314 0.853,-2.832 1.814,-3.759c5.673,-5.477 11.591,-10.713 17.24,-16.213c4.702,-4.58 8.463,-9.968 6.684,-16.725c-2.444,-9.284 -11.871,-14.787 -22.754,-14.664c-4.194,1.636 -8.716,2.771 -12.47,5.085Zm10.965,3.288c3.626,-1.394 7.94,-0.725 11.763,1.721c3.785,2.424 4.516,5.92 2.057,9.601c-3.676,5.503 -8.208,10.304 -14.566,14.632l0.746,-25.954Zm1.469,1.099l-0.629,21.869c4.937,-3.746 8.645,-7.858 11.733,-12.48c0.966,-1.446 1.367,-2.839 1.093,-4.126c-0.275,-1.292 -1.218,-2.421 -2.712,-3.377c-3.066,-1.962 -6.482,-2.682 -9.485,-1.886Zm-10.75,5.723l-1.077,11.046c-2.198,-3.893 -1.683,-7.563 1.077,-11.046Z" style="fill:#fff;"/><path d="M126.972,83.511c-0.46,3.453 -0.861,6.917 -1.389,10.361c-1.09,7.103 -2.301,14.188 -3.351,21.297c-0.431,2.916 2.391,6.25 5.321,6.313c3.276,0.069 5.374,-0.527 5.631,-4.807c0.468,-7.799 2.534,-15.51 2.975,-23.308c0.366,-6.499 -0.36,-13.107 -1.232,-19.587c-0.221,-1.64 -2.64,-3.822 -4.423,-4.235c-2.247,-0.52 -5.575,-0.968 -6.375,2.876c-0.159,0.764 -1.228,1.336 -1.848,2.024c-5.092,5.652 -10.24,11.258 -15.235,16.988c-2.284,2.619 -4.269,5.485 -6.68,8.618c-0.624,-1.156 -0.907,-1.582 -1.097,-2.044c-3.58,-8.698 -7.11,-17.416 -10.766,-26.083c-0.498,-1.179 -1.447,-2.815 -2.461,-3.031c-2.619,-0.557 -5.792,-1.307 -7.989,-0.348c-2.249,0.981 -2.279,3.82 -0.322,6.133c0.639,0.757 0.692,2.259 0.515,3.342c-2.077,12.749 -4.253,25.482 -6.396,38.219c-0.426,2.538 2.357,6.888 4.658,6.767c3.088,-0.164 4.104,-2.61 4.641,-5.163c1.784,-8.47 3.529,-16.951 5.448,-26.188c0.737,1.763 1.302,3.003 1.779,4.274c1.798,4.784 3.471,9.615 5.38,14.357c1.206,2.995 3.829,4.68 7.014,4.372c1.566,-0.152 3.433,-1.612 4.367,-2.99c5.11,-7.543 9.877,-15.306 14.981,-22.853c1.492,-2.205 3.705,-3.953 5.588,-5.909c0.421,0.201 1.266,0.605 1.266,0.605Z" style="fill:#fff;fill-rule:nonzero;"/><path d="M100.59,97.274c1.832,-2.442 3.483,-4.714 5.325,-6.827c5.001,-5.736 10.154,-11.348 15.252,-17.006c0.29,-0.322 0.66,-0.628 1.018,-0.93c0.169,-0.144 0.429,-0.411 0.493,-0.477c0.333,-1.524 1.001,-2.522 1.8,-3.184c1.756,-1.452 4.384,-1.225 6.364,-0.766c1.316,0.304 2.937,1.357 4.063,2.615c0.837,0.934 1.387,1.981 1.508,2.881c0.886,6.573 1.615,13.278 1.243,19.871c-0.441,7.8 -2.507,15.513 -2.975,23.314c-0.13,2.162 -0.708,3.554 -1.528,4.471c-1.235,1.381 -3.14,1.798 -5.632,1.746c-1.872,-0.04 -3.734,-1.078 -5.035,-2.619c-1.3,-1.54 -2.013,-3.551 -1.738,-5.413c1.051,-7.112 2.262,-14.199 3.352,-21.305c0.415,-2.708 0.751,-5.427 1.1,-8.144c-1.389,1.315 -2.799,2.617 -3.839,4.155c-5.105,7.547 -9.872,15.311 -14.983,22.853c-1.158,1.709 -3.52,3.453 -5.463,3.642c-3.878,0.375 -7.082,-1.659 -8.55,-5.305c-1.877,-4.661 -3.527,-9.409 -5.29,-14.113c-1.539,7.426 -2.985,14.426 -4.458,21.419c-0.677,3.221 -2.134,6.146 -6.03,6.352c-1.301,0.069 -2.79,-0.735 -3.975,-2.122c-1.547,-1.808 -2.555,-4.519 -2.241,-6.392c2.142,-12.734 4.318,-25.465 6.395,-38.211c0.067,-0.416 0.093,-0.913 0.039,-1.378c-0.034,-0.289 -0.067,-0.575 -0.219,-0.754c-2.715,-3.209 -2.254,-7.116 0.867,-8.477c2.446,-1.067 5.985,-0.365 8.901,0.256c0.547,0.117 1.103,0.426 1.609,0.91c0.794,0.758 1.502,2.01 1.922,3.005c3.635,8.617 7.145,17.285 10.705,25.933Zm26.382,-13.763c-0.46,3.453 -0.861,6.917 -1.389,10.361c-1.09,7.103 -2.301,14.188 -3.351,21.297c-0.431,2.916 2.391,6.25 5.321,6.313c3.276,0.069 5.374,-0.527 5.631,-4.807c0.468,-7.799 2.534,-15.51 2.975,-23.308c0.366,-6.499 -0.36,-13.107 -1.232,-19.587c-0.221,-1.64 -2.64,-3.822 -4.423,-4.235c-2.247,-0.52 -5.575,-0.968 -6.375,2.876c-0.159,0.764 -1.228,1.336 -1.848,2.024c-5.092,5.652 -10.24,11.258 -15.235,16.988c-2.284,2.619 -4.269,5.485 -6.68,8.618c-0.624,-1.156 -0.907,-1.582 -1.097,-2.044c-3.58,-8.698 -7.11,-17.416 -10.766,-26.083c-0.498,-1.179 -1.447,-2.815 -2.461,-3.031c-2.619,-0.557 -5.792,-1.307 -7.989,-0.348c-2.249,0.981 -2.279,3.82 -0.322,6.133c0.639,0.757 0.692,2.259 0.515,3.342c-2.077,12.749 -4.253,25.482 -6.396,38.219c-0.426,2.538 2.357,6.888 4.658,6.767c3.088,-0.164 4.104,-2.61 4.641,-5.163c1.784,-8.47 3.529,-16.951 5.448,-26.188c0.737,1.763 1.302,3.003 1.779,4.274c1.798,4.784 3.471,9.615 5.38,14.357c1.206,2.995 3.829,4.68 7.014,4.372c1.566,-0.152 3.433,-1.612 4.367,-2.99c5.11,-7.543 9.877,-15.306 14.981,-22.853c1.492,-2.205 3.705,-3.953 5.588,-5.909l1.266,0.605Z" style="fill:#fff;"/></g></svg>