<?xml version="1.0" encoding="UTF-8" standalone="no"?><!DOCTYPE svg PUBLIC "-//W3C//DTD SVG 1.1//EN" "http://www.w3.org/Graphics/SVG/1.1/DTD/svg11.dtd"><svg width="100%" height="100%" viewBox="0 0 400 200" version="1.1" xmlns="http://www.w3.org/2000/svg" xmlns:xlink="http://www.w3.org/1999/xlink" xml:space="preserve" xmlns:serif="http://www.serif.com/" style="fill-rule:evenodd;clip-rule:evenodd;stroke-linejoin:round;stroke-miterlimit:2;"><g id="HeartVibes"><g><g><path d="M56.267,84.277c0.435,-2.711 1.063,-5.394 1.423,-8.114c0.692,-5.236 1.022,-10.529 1.939,-15.721c0.776,-4.394 2.268,-8.657 3.253,-13.021c0.653,-2.891 -1.173,-4.917 -3.548,-5.602c-0.784,-0.226 -3.114,2.137 -3.467,3.618c-3.248,13.62 -6.333,27.281 -9.195,40.987c-0.796,3.813 -1.107,7.321 -6.232,7.485c-0.889,0.028 -2.099,1.789 -2.444,2.961c-0.23,0.777 0.576,2.205 1.334,2.864c2.32,2.02 10.839,1.452 13.365,-0.312c1.885,-1.316 4.11,-2.492 6.335,-2.902c3.822,-0.703 7.766,-0.727 11.653,-1.097c4.361,-0.415 2.587,-3.913 2.832,-6.163c0.298,-2.735 -1.919,-2.434 -3.659,-2.172c-4.459,0.671 -8.901,1.444 -14.157,2.309c0.218,-2.017 0.32,-3.58 0.568,-5.12Z" style="fill:#fff;fill-rule:nonzero;stroke:#fff;stroke-width:1px;"/><path d="M104.566,62.192c-2.305,-1.269 -5.201,-1.846 -7.869,-1.988c-4.659,-0.248 -8.515,2.24 -12.601,4.234c-5.325,2.598 -7.907,11.037 -6.136,15.571c2.045,5.238 8.825,11.86 14.606,9.97c2.773,-0.906 5.412,-2.263 8.026,-3.587c0.668,-0.339 1.497,-1.426 1.383,-1.995c-0.173,-0.868 -0.977,-2.038 -1.745,-2.255c-1.11,-0.315 -2.455,-0.012 -3.656,0.236c-4.307,0.891 -7.303,1.994 -9.293,-2.874c5.632,-2.262 11.191,-4.152 16.432,-6.698c5.088,-2.471 5.49,-8.062 0.853,-10.614Z" style="fill:#fff;fill-rule:nonzero;stroke:#fff;stroke-width:1px;"/><path d="M161.548,34.573c-2.213,1.406 -4.355,4.009 -5.059,6.493c-1.775,6.264 0.166,12.28 2.741,18.084c0.769,1.736 1.615,3.642 1.619,5.472c0.01,4.373 -0.476,8.746 -0.731,13.121c-0.226,3.908 -0.721,7.835 -0.51,11.722c0.151,2.765 2.271,4.047 5.158,3.909c2.802,-0.134 3.763,-1.671 3.892,-4.268c0.229,-4.601 0.531,-9.202 1,-13.783c0.119,-1.157 0.729,-2.494 1.55,-3.31c4.85,-4.823 9.91,-9.434 14.739,-14.277c4.02,-4.033 7.235,-8.778 5.714,-14.728c-2.089,-8.175 -10.148,-13.021 -19.452,-12.913c-3.586,1.441 -7.452,2.44 -10.661,4.478Zm9.374,2.895c3.1,-1.227 6.788,-0.638 10.056,1.516c3.236,2.134 3.861,5.213 1.759,8.454c-3.143,4.846 -7.017,9.074 -12.453,12.885c0.222,-7.96 0.638,-22.855 0.638,-22.855Zm-7.934,6.008c-0.307,3.242 -0.614,6.485 -0.921,9.727c-1.879,-3.428 -1.439,-6.66 0.921,-9.727Z" style="fill:#fff;fill-rule:nonzero;stroke:#fff;stroke-width:1px;"/><path d="M250.065,46.607c-0.393,3.041 -0.736,6.091 -1.187,9.124c-0.932,6.255 -1.967,12.494 -2.865,18.754c-0.368,2.568 2.044,5.504 4.549,5.559c2.801,0.061 4.594,-0.464 4.814,-4.233c0.4,-6.868 2.166,-13.658 2.543,-20.525c0.313,-5.723 -0.307,-11.542 -1.053,-17.248c-0.189,-1.444 -2.257,-3.366 -3.781,-3.729c-1.921,-0.458 -4.766,-0.853 -5.45,2.532c-0.136,0.673 -1.05,1.177 -1.58,1.783c-4.353,4.977 -8.754,9.913 -13.025,14.959c-1.952,2.306 -3.649,4.83 -5.71,7.589c-0.534,-1.018 -0.776,-1.393 -0.938,-1.8c-3.061,-7.659 -6.079,-15.336 -9.204,-22.968c-0.426,-1.039 -1.237,-2.479 -2.104,-2.669c-2.239,-0.491 -4.952,-1.151 -6.83,-0.307c-1.923,0.864 -1.948,3.364 -0.275,5.401c0.546,0.666 0.591,1.989 0.44,2.943c-1.776,11.226 -3.636,22.439 -5.468,33.655c-0.364,2.235 2.015,6.066 3.982,5.959c2.64,-0.144 3.509,-2.298 3.968,-4.546c1.525,-7.459 3.017,-14.927 4.657,-23.061c0.63,1.552 1.113,2.644 1.521,3.763c1.537,4.213 2.968,8.467 4.6,12.643c1.031,2.637 3.273,4.121 5.996,3.85c1.339,-0.134 2.935,-1.42 3.733,-2.633c4.369,-6.642 8.444,-13.478 12.808,-20.124c1.275,-1.942 3.167,-3.481 4.777,-5.204c0.36,0.177 1.082,0.533 1.082,0.533Z" style="fill:#fff;fill-rule:nonzero;stroke:#fff;stroke-width:1px;"/><path d="M277.654,40.133c0.851,-2.879 2.026,-5.875 -0.349,-8.507c-0.714,-0.791 -2.227,-1.278 -3.306,-1.177c-0.711,0.066 -1.508,1.34 -1.911,2.235c-3.367,7.477 -4.54,15.474 -4.891,23.545c-0.225,5.197 0.294,10.447 3.169,15.093c2.888,4.667 7.636,5.213 11.135,1.14c2.109,-2.455 3.959,-5.131 5.932,-7.702c7.003,-9.126 11.414,-19.185 10.702,-30.933c-0.098,-1.638 -1.009,-3.678 -2.24,-4.642c-0.849,-0.667 -3.073,-0.16 -4.372,0.467c-1.848,0.894 -2.753,2.553 -2.447,4.894c1.685,12.847 -5.9,21.968 -12.843,32.093c-2.718,-7.168 -0.831,-18.89 1.421,-26.506Z" style="fill:#fff;fill-rule:nonzero;stroke:#fff;stroke-width:1px;"/></g></g><g><g><path d="M41.12,106.469c-2.967,-0.109 -4.569,1.48 -4.694,4.263c-0.195,4.338 -0.585,8.667 -0.909,13.231c-1.832,0.068 -2.994,0.074 -4.151,0.16c-10.152,0.749 -16.264,6.056 -17.419,14.878c-0.942,7.2 9.254,14.746 16.317,12.373c6.004,-2.018 10.273,-6.265 11.435,-12.799c1.627,-9.144 3.076,-18.321 4.52,-27.497c0.344,-2.184 -2.362,-4.508 -5.099,-4.609Zm-9.654,34.651c-1.31,2.768 -4.371,2.919 -7.052,2.606c-1.94,-0.227 -2.781,-5.384 -0.968,-7.267c2.715,-2.819 5.871,-5.151 11.148,-5.34c-1.137,3.77 -1.741,7.071 -3.128,10.001Z" style="fill:#fff;fill-rule:nonzero;stroke:#fff;stroke-width:1px;"/><path d="M83.12,112.954c-2.305,-1.269 -5.201,-1.846 -7.869,-1.988c-4.659,-0.248 -8.515,2.24 -12.601,4.234c-5.325,2.598 -7.907,11.037 -6.136,15.571c2.045,5.238 8.825,11.861 14.606,9.97c2.773,-0.906 5.412,-2.262 8.026,-3.587c0.668,-0.339 1.497,-1.426 1.383,-1.995c-0.173,-0.868 -0.976,-2.038 -1.745,-2.255c-1.11,-0.315 -2.455,-0.012 -3.656,0.237c-4.307,0.89 -7.303,1.994 -9.293,-2.874c5.632,-2.263 11.191,-4.153 16.432,-6.699c5.088,-2.471 5.49,-8.062 0.853,-10.614Z" style="fill:#fff;fill-rule:nonzero;stroke:#fff;stroke-width:1px;"/><path d="M160.156,97.105c-0.693,-0.663 -2.142,-0.72 -3.257,-0.727c-4.637,-0.031 -8.114,2.516 -11.077,5.648c-4.401,4.651 -7.202,10.763 -3.106,17.446c1.667,2.719 3.775,5.254 6.066,7.477c1.895,1.84 1.898,3.206 -0.232,4.346c-2.69,1.439 -5.524,2.642 -8.378,3.735c-2.338,0.896 -3.066,2.498 -1.93,4.496c1.336,2.348 3.662,3.93 6.338,2.674c3.713,-1.743 7.438,-3.707 10.642,-6.232c5.186,-4.086 4.939,-6.508 0.145,-11.208c-2.841,-2.786 -6.105,-5.42 -6.304,-9.644c-0.516,-5.647 4.557,-11.681 10.017,-12.507c1.011,-0.152 2.606,-1.236 2.642,-1.956c0.06,-1.184 -0.673,-2.694 -1.566,-3.548Z" style="fill:#fff;fill-rule:nonzero;stroke:#fff;stroke-width:1px;"/><path d="M198.569,103.194c-3.405,-4.904 -7.88,-5.604 -13.222,-3.022c-4.674,2.258 -7.349,6.249 -10.006,10.304c-3.1,4.727 -4.372,9.837 -2.9,15.505c1.723,6.635 7.555,10.07 12.891,7.224c4.992,-2.663 9.103,-6.422 12.084,-11.267c2.164,-3.519 4.395,-7.071 3.999,-12.897c-0.566,-1.195 -1.386,-3.743 -2.846,-5.847Zm-11.043,19.673c-1.164,1.351 -2.826,2.328 -4.383,3.274c-2.351,1.428 -3.334,0.211 -3.537,-2.115c-0.577,-6.617 4.113,-14.922 10.83,-17.552c0.78,-0.305 2.619,2.096 3.638,2.964c-0.72,6.033 -3.47,9.857 -6.548,13.429Z" style="fill:#fff;fill-rule:nonzero;stroke:#fff;stroke-width:1px;"/><path d="M236.848,102.756c-0.305,-1.026 -1.153,-2.565 -1.885,-2.646c-1.369,-0.151 -3.396,0.145 -4.133,1.067c-1.14,1.427 -1.528,3.506 -2.056,5.361c-1.691,5.939 -4.458,11.124 -10.562,15.298c-0.296,-3.544 -0.839,-6.481 -0.695,-9.384c0.129,-2.589 0.969,-5.154 1.586,-7.706c0.685,-2.828 -0.673,-5.824 -3.305,-6.451c-3.114,-0.741 -3.589,1.765 -4.192,3.895c-0.498,1.763 -1.298,3.566 -1.254,5.334c0.128,5.249 -0.568,10.936 1.218,15.631c2.762,7.256 6.391,8.419 13.446,3.751c1.977,-1.307 3.435,-3.404 5.112,-5.158c5.086,-5.326 9.075,-11.07 6.72,-18.992Z" style="fill:#fff;fill-rule:nonzero;stroke:#fff;stroke-width:1px;"/><path d="M271.433,121.735c-2.411,1.219 -4.689,2.962 -7.242,3.572c-3.003,0.717 -4.342,-0.903 -3.712,-3.958c0.531,-2.581 1.654,-5.036 2.229,-7.612c0.985,-4.408 2.495,-7.828 8.089,-7.338c1.079,0.094 3.011,-1.7 3.292,-2.914c0.212,-0.917 -1.489,-2.387 -2.514,-3.44c-0.689,-0.708 -1.684,-1.119 -2.711,-1.769c1.308,-1.899 2.441,-3.771 3.805,-5.456c1.353,-1.672 2,-3.146 0.04,-4.785c-1.776,-1.486 -3.552,-1.758 -5.207,0.064c-1.616,1.781 -3.638,3.447 -4.546,5.566c-2.357,5.495 -6.403,8.419 -12.099,9.427c-0.799,0.141 -1.611,0.244 -2.389,0.465c-2.84,0.81 -3.696,3.484 -1.314,5.019c1.944,1.252 4.571,1.445 7.259,2.21c-0.709,2.342 -2.339,5.451 -2.413,8.598c-0.075,3.171 0.783,6.729 2.353,9.477c1.717,3.003 5.307,3.68 8.83,3.724c9.022,0.114 14.788,-6.158 12.816,-13.065c-1.709,0.827 -3.148,1.499 -4.566,2.215Z" style="fill:#fff;fill-rule:nonzero;stroke:#fff;stroke-width:1px;"/><path d="M295.347,97.182c-3.075,-0.428 -3.556,1.95 -3.999,4.352c-0.518,2.805 -1.413,5.537 -2.023,8.327c-1.343,6.141 -2.61,12.298 -3.907,18.448c0.188,0.037 0.376,0.072 0.565,0.109c0.049,0.58 -0.128,1.372 0.184,1.705c1.416,1.507 2.745,3.465 4.534,4.16c2.207,0.857 3.658,-1.026 4.061,-3.16c0.44,-2.333 0.389,-4.762 0.854,-7.089c1.344,-6.726 2.815,-13.426 4.284,-20.127c0.788,-3.602 -0.757,-6.196 -4.553,-6.725Zm7.533,-16.28c-2.098,-1.087 -4.188,-1.377 -5.762,1.056c-1.775,2.743 -0.245,5.029 1.729,6.157c1.509,0.862 4.048,0.521 5.902,-0.038c1.239,-0.373 2.081,-2.065 3.58,-3.685c-2.172,-1.409 -3.732,-2.601 -5.449,-3.49Z" style="fill:#fff;fill-rule:nonzero;stroke:#fff;stroke-width:1px;"/><path d="M344.432,91.143c-2.305,-1.269 -5.201,-1.846 -7.87,-1.988c-4.659,-0.248 -8.515,2.24 -12.6,4.234c-5.325,2.598 -7.907,11.037 -6.136,15.571c2.044,5.237 8.825,11.86 14.605,9.97c2.774,-0.907 5.413,-2.263 8.026,-3.587c0.669,-0.339 1.497,-1.427 1.383,-1.996c-0.173,-0.867 -0.976,-2.037 -1.744,-2.255c-1.111,-0.314 -2.455,-0.012 -3.656,0.237c-4.307,0.891 -7.303,1.994 -9.293,-2.874c5.631,-2.262 11.191,-4.153 16.432,-6.698c5.088,-2.471 5.49,-8.062 0.853,-10.614Z" style="fill:#fff;fill-rule:nonzero;stroke:#fff;stroke-width:1px;"/><path d="M388.623,84.344c-3.515,-4.881 -5.577,-5.089 -10.058,-0.218c-0.378,0.411 -0.519,1.03 -0.846,1.5c-1.654,2.379 -3.333,4.74 -5.002,7.107c-0.288,-2.238 0.032,-4.138 0.481,-6.007c0.85,-3.532 -0.147,-6.01 -2.836,-6.36c-3.326,-0.435 -3.908,1.996 -4.521,4.515c-2.528,10.393 -5.134,20.767 -7.752,31.138c-0.788,3.122 0.239,5.414 3.061,6.284c3.012,0.928 4.423,-0.832 5.588,-3.27c2.375,-4.97 4.691,-9.985 7.409,-14.767c2.303,-4.053 5.136,-7.804 8.299,-12.533c0.151,1.807 0.399,2.584 0.244,3.272c-0.985,4.368 -2.072,8.713 -3.1,13.072c-0.747,3.163 1.12,6.459 4.025,6.9c3.387,0.513 4.348,-1.675 4.858,-4.482c0.595,-3.279 1.537,-6.498 2.098,-9.782c0.962,-5.626 1.683,-11.326 -1.948,-16.369Z" style="fill:#fff;fill-rule:nonzero;stroke:#fff;stroke-width:1px;"/></g></g><g><g><path d="M30.59,165.7c-1.16,-0.043 -1.786,0.578 -1.835,1.666c-0.076,1.696 -0.228,3.388 -0.355,5.172c-0.716,0.027 -1.171,0.029 -1.623,0.063c-3.968,0.292 -6.357,2.367 -6.809,5.815c-0.368,2.815 3.618,5.765 6.379,4.837c2.347,-0.789 4.015,-2.449 4.469,-5.003c0.636,-3.575 1.203,-7.162 1.767,-10.749c0.135,-0.853 -0.923,-1.762 -1.993,-1.801Zm-3.773,13.544c-0.513,1.083 -1.709,1.141 -2.757,1.019c-0.758,-0.088 -1.087,-2.104 -0.379,-2.84c1.062,-1.102 2.295,-2.014 4.358,-2.088c-0.444,1.474 -0.68,2.764 -1.222,3.909Z" style="fill:#fff;fill-rule:nonzero;stroke:#fff;stroke-width:1px;"/><path d="M47.008,168.235c-0.901,-0.496 -2.033,-0.722 -3.076,-0.778c-1.821,-0.096 -3.329,0.876 -4.926,1.655c-2.081,1.016 -3.091,4.315 -2.398,6.087c0.799,2.048 3.449,4.636 5.709,3.898c1.084,-0.355 2.116,-0.885 3.137,-1.403c0.262,-0.132 0.585,-0.557 0.541,-0.78c-0.068,-0.339 -0.382,-0.796 -0.682,-0.881c-0.434,-0.123 -0.96,-0.005 -1.429,0.092c-1.684,0.348 -2.855,0.78 -3.633,-1.123c2.202,-0.884 4.375,-1.623 6.424,-2.618c1.988,-0.966 2.146,-3.152 0.333,-4.149Z" style="fill:#fff;fill-rule:nonzero;stroke:#fff;stroke-width:1px;"/><path d="M74.37,168.324c0.41,-1.333 0.81,-2.669 1.186,-4.013c0.328,-1.174 -0.129,-1.899 -1.315,-2.203c-1.131,-0.29 -1.112,0.688 -1.346,1.266c-0.625,1.543 -1.22,3.104 -1.713,4.694c-0.956,3.083 -1.814,6.197 -2.755,9.285c-0.313,1.028 0.315,1.554 0.982,2.007c0.344,0.233 1.054,0.431 1.28,0.25c1.134,-0.913 2.465,-1.016 3.796,-1.313c0.834,-0.186 1.881,-0.693 1.656,-1.947c-0.209,-1.169 -1.155,-1.231 -2.094,-1.203c-0.494,0.015 -0.986,0.078 -1.536,0.124c-0.029,-0.343 -0.116,-0.585 -0.056,-0.783c0.626,-2.059 1.282,-4.107 1.915,-6.164Z" style="fill:#fff;fill-rule:nonzero;stroke:#fff;stroke-width:1px;"/><path d="M90.455,167.213c-0.194,-1.784 -0.702,-2.436 -2.492,-2.475c-0.959,-0.021 -1.974,0.228 -2.88,0.574c-2.233,0.854 -3.748,2.627 -5.166,4.446c-1.049,1.345 -0.855,2.77 0.264,3.914c1.208,1.237 2.593,1.48 4.068,0.713c1.13,-0.586 2.149,-1.388 3.385,-2.205c0.171,0.233 0.317,0.636 0.593,0.77c0.722,0.351 1.5,0.583 2.256,0.863c0.209,-0.634 0.626,-1.281 0.587,-1.898c-0.1,-1.574 -0.444,-3.13 -0.615,-4.702Z" style="fill:#fff;fill-rule:nonzero;stroke:#fff;stroke-width:1px;"/><path d="M118.148,157.698c1.019,0.109 2.681,-1.211 2.409,-2.08c-0.249,-0.794 -1.131,-1.706 -1.923,-1.95c-1.898,-0.584 -6.105,1.575 -6.967,3.369c-1.303,2.712 -1.169,5.392 0.615,7.818c1.25,1.699 2.744,3.22 4.285,5.002c-1.456,0.971 -2.853,1.996 -4.768,2.005c-0.373,0.002 -1.027,0.267 -1.065,0.492c-0.114,0.684 -0.188,1.5 0.088,2.094c0.454,0.979 1.513,1.067 2.391,0.717c1.814,-0.725 3.623,-1.506 5.328,-2.454c1.914,-1.066 2.065,-2.451 0.609,-4.043c-1.164,-1.273 -2.366,-2.51 -3.549,-3.765c-2.611,-2.768 -1.973,-6.456 1.246,-7.988c0.533,0.335 0.898,0.74 1.301,0.783Z" style="fill:#fff;fill-rule:nonzero;stroke:#fff;stroke-width:1px;"/><path d="M136.074,163.405c-0.194,-1.784 -0.702,-2.436 -2.492,-2.475c-0.959,-0.021 -1.974,0.228 -2.88,0.574c-2.233,0.854 -3.748,2.627 -5.166,4.446c-1.049,1.346 -0.855,2.77 0.264,3.915c1.208,1.236 2.593,1.479 4.068,0.713c1.13,-0.587 2.149,-1.388 3.385,-2.205c0.171,0.232 0.317,0.635 0.593,0.769c0.722,0.351 1.5,0.583 2.255,0.863c0.21,-0.634 0.627,-1.28 0.588,-1.898c-0.1,-1.573 -0.444,-3.13 -0.615,-4.702Z" style="fill:#fff;fill-rule:nonzero;stroke:#fff;stroke-width:1px;"/><path d="M144.235,160.879c-1.202,-0.168 -1.39,0.762 -1.563,1.701c-0.203,1.096 -0.553,2.164 -0.791,3.254c-0.525,2.401 -1.02,4.808 -1.527,7.212c0.073,0.014 0.147,0.028 0.221,0.042c0.019,0.227 -0.051,0.537 0.072,0.667c0.553,0.589 1.073,1.354 1.772,1.626c0.863,0.335 1.43,-0.401 1.587,-1.235c0.172,-0.912 0.153,-1.862 0.334,-2.771c0.525,-2.629 1.101,-5.249 1.675,-7.868c0.308,-1.408 -0.296,-2.422 -1.78,-2.628Zm2.945,-6.365c-0.82,-0.424 -1.637,-0.538 -2.253,0.413c-0.694,1.072 -0.096,1.966 0.676,2.407c0.59,0.337 1.582,0.204 2.307,-0.015c0.484,-0.145 0.814,-0.807 1.4,-1.44c-0.849,-0.551 -1.459,-1.017 -2.13,-1.365Z" style="fill:#fff;fill-rule:nonzero;stroke:#fff;stroke-width:1px;"/><path d="M165.149,157.158c-1.374,-1.908 -2.18,-1.99 -3.931,-0.085c-0.148,0.16 -0.203,0.402 -0.331,0.586c-0.646,0.93 -1.303,1.853 -1.955,2.778c-0.113,-0.875 0.012,-1.618 0.188,-2.348c0.332,-1.381 -0.057,-2.349 -1.109,-2.486c-1.3,-0.17 -1.527,0.78 -1.767,1.764c-0.988,4.063 -2.007,8.118 -3.03,12.173c-0.308,1.22 0.093,2.116 1.196,2.456c1.178,0.362 1.729,-0.325 2.185,-1.278c0.928,-1.943 1.833,-3.904 2.896,-5.773c0.9,-1.584 2.007,-3.05 3.244,-4.899c0.059,0.706 0.156,1.01 0.095,1.279c-0.385,1.707 -0.81,3.406 -1.212,5.11c-0.291,1.236 0.438,2.525 1.574,2.697c1.324,0.201 1.699,-0.655 1.899,-1.752c0.233,-1.282 0.6,-2.54 0.82,-3.824c0.376,-2.199 0.658,-4.427 -0.762,-6.398Z" style="fill:#fff;fill-rule:nonzero;stroke:#fff;stroke-width:1px;"/><path d="M179.514,166.751c-0.942,0.476 -1.833,1.158 -2.831,1.396c-1.174,0.28 -1.697,-0.353 -1.451,-1.547c0.208,-1.009 0.647,-1.969 0.872,-2.975c0.384,-1.724 0.975,-3.06 3.162,-2.869c0.421,0.037 1.177,-0.664 1.286,-1.139c0.083,-0.358 -0.582,-0.933 -0.982,-1.345c-0.27,-0.276 -0.658,-0.437 -1.06,-0.691c0.511,-0.742 0.954,-1.474 1.487,-2.133c0.529,-0.653 0.782,-1.229 0.016,-1.87c-0.694,-0.581 -1.389,-0.687 -2.035,0.025c-0.632,0.696 -1.422,1.347 -1.777,2.175c-0.922,2.148 -2.503,3.291 -4.73,3.685c-0.312,0.056 -0.63,0.096 -0.934,0.182c-1.11,0.317 -1.445,1.362 -0.514,1.962c0.76,0.49 1.787,0.565 2.838,0.864c-0.277,0.916 -0.914,2.131 -0.943,3.361c-0.029,1.24 0.306,2.63 0.92,3.705c0.671,1.174 2.074,1.438 3.451,1.455c3.527,0.045 5.781,-2.407 5.01,-5.107c-0.668,0.323 -1.231,0.586 -1.785,0.866Z" style="fill:#fff;fill-rule:nonzero;stroke:#fff;stroke-width:1px;"/></g><path d="M195.994,159.027c-0.351,-0.755 -2.248,-1.487 -3.063,-1.233c-3.12,0.972 -6.06,2.54 -9.411,2.775c-0.363,0.025 -0.915,0.734 -0.967,1.174c-0.171,1.458 1.186,2.342 3.411,2.143c0.047,-0.011 0.361,-0.062 0.662,-0.153c2.78,-0.84 5.558,-1.691 8.339,-2.531c0.861,-0.26 1.399,-1.377 1.029,-2.175Z" style="fill:#fff;fill-rule:nonzero;stroke:#fff;stroke-width:1px;"/><g><path d="M201.999,156.72c0.013,0.333 -0.571,0.696 -0.891,1.034c-0.438,0.461 -0.887,0.911 -1.332,1.365c0.476,0.431 0.933,1.201 1.432,1.229c1.377,0.078 1.142,0.888 1.196,1.78c0.109,1.829 0.255,3.668 0.585,5.467c0.178,0.972 1.129,1.324 2.045,1.071c0.86,-0.237 1.235,-0.879 1.158,-1.883c-0.168,-2.214 -0.243,-4.439 -0.243,-6.659c0,-0.471 0.372,-1.181 0.77,-1.375c2.334,-1.135 4.729,-2.144 7.098,-3.208c0.53,-0.238 1.096,-0.453 1.543,-0.807c0.762,-0.604 0.673,-1.561 -0.24,-1.752c-1.046,-0.218 -2.263,-0.312 -3.248,0.014c-2.151,0.713 -4.202,1.727 -6.535,2.719c-0.28,-1.995 -0.563,-3.941 -0.81,-5.891c-0.021,-0.173 0.158,-0.491 0.312,-0.546c0.99,-0.346 1.998,-0.637 3,-0.946c-0.103,0.651 -0.49,1.005 -0.635,1.439c-0.12,0.362 0.044,0.819 0.083,1.233c0.324,-0.068 0.767,-0.025 0.954,-0.223c1.021,-1.085 2.08,-2.162 2.914,-3.387c0.351,-0.516 0.487,-1.77 0.182,-2.013c-0.561,-0.446 -1.587,-0.667 -2.299,-0.493c-1.918,0.468 -3.777,1.183 -5.652,1.821c-1.359,0.462 -2.73,0.901 -4.043,1.471c-0.401,0.174 -0.89,0.773 -0.86,1.137c0.033,0.384 0.578,0.863 1.007,1.042c0.546,0.227 1.2,0.194 2.049,0.306c0.165,1.978 0.381,4.014 0.46,6.055Z" style="fill:#fff;fill-rule:nonzero;stroke:#fff;stroke-width:1px;"/><path d="M228.873,153.125c-0.877,-0.229 -1.803,-0.307 -2.712,-0.354c-0.418,-0.022 -0.849,0.186 -1.383,0.317c0.361,-1.294 -0.331,-2.021 -1.221,-2.331c-1.072,-0.373 -1.301,0.677 -1.637,1.4c-0.095,0.204 -0.168,0.421 -0.224,0.64c-0.898,3.513 -1.802,7.024 -2.681,10.541c-0.276,1.107 0.566,2.541 1.591,2.675c1.36,0.178 1.679,-0.892 1.924,-1.858c0.42,-1.654 0.726,-3.336 1.087,-5.005c0.437,-2.021 1.775,-3.609 4.202,-3.219c0.511,0.083 1.311,-0.705 1.74,-1.272c0.539,-0.71 0.045,-1.342 -0.686,-1.534Z" style="fill:#fff;fill-rule:nonzero;stroke:#fff;stroke-width:1px;"/><path d="M237.648,153.081c-1.202,-0.167 -1.39,0.762 -1.564,1.702c-0.202,1.096 -0.552,2.164 -0.79,3.254c-0.525,2.401 -1.02,4.808 -1.527,7.212c0.073,0.014 0.147,0.028 0.22,0.042c0.019,0.227 -0.05,0.537 0.072,0.667c0.554,0.589 1.074,1.354 1.773,1.626c0.863,0.335 1.43,-0.401 1.587,-1.235c0.172,-0.912 0.152,-1.862 0.334,-2.771c0.525,-2.63 1.1,-5.249 1.675,-7.868c0.308,-1.408 -0.296,-2.422 -1.78,-2.629Zm2.944,-6.364c-0.82,-0.425 -1.637,-0.538 -2.252,0.413c-0.694,1.072 -0.096,1.966 0.676,2.407c0.59,0.337 1.582,0.203 2.307,-0.015c0.484,-0.146 0.814,-0.807 1.4,-1.44c-0.85,-0.551 -1.459,-1.017 -2.131,-1.365Z" style="fill:#fff;fill-rule:nonzero;stroke:#fff;stroke-width:1px;"/><path d="M257.117,146.792c-1.16,-0.043 -1.786,0.578 -1.835,1.666c-0.076,1.696 -0.229,3.388 -0.355,5.172c-0.716,0.027 -1.171,0.029 -1.623,0.063c-3.968,0.292 -6.357,2.367 -6.809,5.815c-0.368,2.815 3.617,5.765 6.378,4.837c2.347,-0.789 4.016,-2.449 4.47,-5.003c0.636,-3.575 1.203,-7.162 1.767,-10.749c0.135,-0.853 -0.923,-1.762 -1.993,-1.801Zm-3.774,13.544c-0.512,1.083 -1.708,1.141 -2.756,1.019c-0.759,-0.088 -1.088,-2.105 -0.379,-2.84c1.061,-1.102 2.295,-2.014 4.358,-2.088c-0.444,1.474 -0.68,2.764 -1.223,3.909Z" style="fill:#fff;fill-rule:nonzero;stroke:#fff;stroke-width:1px;"/><path d="M273.492,149.282c-1.331,-1.917 -3.08,-2.191 -5.168,-1.182c-1.827,0.883 -2.873,2.443 -3.912,4.028c-1.211,1.848 -1.709,3.846 -1.133,6.061c0.674,2.594 2.953,3.937 5.039,2.824c1.951,-1.041 3.558,-2.511 4.724,-4.404c0.846,-1.376 1.717,-2.764 1.563,-5.042c-0.221,-0.467 -0.542,-1.463 -1.113,-2.285Zm-4.316,7.69c-0.456,0.528 -1.105,0.91 -1.714,1.28c-0.919,0.558 -1.303,0.082 -1.382,-0.827c-0.226,-2.587 1.608,-5.833 4.233,-6.861c0.305,-0.119 1.024,0.819 1.422,1.159c-0.281,2.358 -1.356,3.853 -2.559,5.249Z" style="fill:#fff;fill-rule:nonzero;stroke:#fff;stroke-width:1px;"/><path d="M284.613,150.776c0.41,-1.334 0.811,-2.67 1.186,-4.013c0.328,-1.175 -0.128,-1.9 -1.314,-2.204c-1.132,-0.29 -1.113,0.688 -1.347,1.266c-0.624,1.543 -1.22,3.104 -1.712,4.694c-0.956,3.083 -1.814,6.197 -2.755,9.285c-0.313,1.028 0.315,1.555 0.982,2.007c0.343,0.234 1.053,0.431 1.279,0.25c1.134,-0.913 2.466,-1.016 3.797,-1.313c0.834,-0.186 1.88,-0.693 1.656,-1.947c-0.21,-1.169 -1.155,-1.231 -2.094,-1.203c-0.494,0.015 -0.987,0.078 -1.537,0.124c-0.028,-0.343 -0.115,-0.585 -0.055,-0.783c0.626,-2.059 1.282,-4.107 1.914,-6.163Z" style="fill:#fff;fill-rule:nonzero;stroke:#fff;stroke-width:1px;"/><path d="M294.24,148.358c-1.202,-0.168 -1.39,0.762 -1.564,1.701c-0.202,1.096 -0.552,2.164 -0.791,3.255c-0.525,2.4 -1.02,4.807 -1.527,7.211c0.074,0.014 0.147,0.028 0.221,0.043c0.019,0.226 -0.05,0.536 0.072,0.666c0.554,0.589 1.073,1.355 1.772,1.626c0.863,0.335 1.43,-0.401 1.588,-1.235c0.172,-0.912 0.152,-1.861 0.334,-2.771c0.525,-2.629 1.1,-5.248 1.674,-7.867c0.308,-1.409 -0.296,-2.422 -1.779,-2.629Zm2.944,-6.364c-0.82,-0.425 -1.637,-0.538 -2.252,0.412c-0.694,1.073 -0.096,1.966 0.676,2.407c0.589,0.337 1.582,0.204 2.307,-0.014c0.484,-0.146 0.813,-0.808 1.399,-1.441c-0.849,-0.551 -1.459,-1.017 -2.13,-1.364Z" style="fill:#fff;fill-rule:nonzero;stroke:#fff;stroke-width:1px;"/><path d="M315.154,144.637c-1.374,-1.908 -2.18,-1.989 -3.931,-0.085c-0.148,0.161 -0.204,0.402 -0.331,0.586c-0.647,0.93 -1.303,1.853 -1.956,2.778c-0.112,-0.875 0.013,-1.617 0.189,-2.348c0.332,-1.38 -0.058,-2.349 -1.109,-2.486c-1.3,-0.17 -1.528,0.78 -1.767,1.765c-0.989,4.062 -2.007,8.118 -3.031,12.172c-0.308,1.22 0.094,2.116 1.197,2.456c1.177,0.363 1.729,-0.325 2.184,-1.278c0.929,-1.943 1.834,-3.903 2.896,-5.773c0.901,-1.584 2.008,-3.05 3.245,-4.899c0.059,0.706 0.156,1.01 0.095,1.279c-0.385,1.708 -0.81,3.406 -1.212,5.11c-0.292,1.237 0.438,2.525 1.573,2.697c1.324,0.201 1.7,-0.655 1.9,-1.752c0.232,-1.282 0.6,-2.54 0.82,-3.823c0.375,-2.2 0.657,-4.428 -0.762,-6.399Z" style="fill:#fff;fill-rule:nonzero;stroke:#fff;stroke-width:1px;"/></g></g></g></svg>