<?xml version="1.0" encoding="UTF-8" standalone="no"?>
<!DOCTYPE svg PUBLIC "-//W3C//DTD SVG 1.1//EN" "http://www.w3.org/Graphics/SVG/1.1/DTD/svg11.dtd">
<svg width="100%" height="100%" viewBox="0 0 2400 1350" version="1.1" xmlns="http://www.w3.org/2000/svg" xmlns:xlink="http://www.w3.org/1999/xlink" xml:space="preserve" xmlns:serif="http://www.serif.com/" style="fill-rule:evenodd;clip-rule:evenodd;stroke-linecap:round;stroke-linejoin:round;stroke-miterlimit:1.5;">
    <g id="page" transform="matrix(1.6,0,0,1.35,-2480,0)">
        <rect x="1550" y="0" width="1500" height="1000" style="fill:none;"/>
        <clipPath id="_clip1">
            <rect x="1550" y="0" width="1500" height="1000"/>
        </clipPath>
        <g clip-path="url(#_clip1)">
            <g transform="matrix(1.10272,0,0,1.064,1135.91,-23.8347)">
                <rect x="375.521" y="22.401" width="1360.27" height="939.845" style="fill:url(#_Radial2);"/>
            </g>
            <g id="mat" transform="matrix(0.574322,0,0,0.235999,1693.71,772.911)">
                <path d="M1735.79,22.401L2361.54,962.246L-250.233,962.246L375.521,22.401L1735.79,22.401Z" style="fill:url(#_Radial3);"/>
            </g>
            <g id="strings" transform="matrix(1,0,0,0.740741,0,222.464)">
                <g>
                    <g transform="matrix(0.625,0,0,1,1550,49.6738)">
                        <path d="M575.014,457.861L1824.99,457.861" style="fill:none;stroke:rgb(188,48,48);stroke-width:12px;"/>
                    </g>
                    <g transform="matrix(0.625,0,0,1,1550,109.712)">
                        <path d="M575.014,457.861L1824.99,457.861" style="fill:none;stroke:rgb(214,214,214);stroke-width:12px;"/>
                    </g>
                    <g transform="matrix(0.625,0,0,1,1550,169.712)">
                        <path d="M575.014,457.861L1824.99,457.861" style="fill:none;stroke:rgb(48,89,238);stroke-width:12px;"/>
                    </g>
                </g>
                <g transform="matrix(-0.625,0,0,1,3042.51,-5.68434e-14)">
                    <g transform="matrix(1.6,0,0,1,-2480,5.68434e-14)">
                        <g>
                            <g transform="matrix(0.625,0,0,1,765.006,49.6738)">
                                <path d="M575.014,577.9C991.671,537.887 1408.33,497.874 1824.99,457.861" style="fill:none;stroke:rgb(188,48,48);stroke-width:12px;"/>
                            </g>
                            <g transform="matrix(0.625,0,0,1,765.006,109.712)">
                                <path d="M575.014,789.352C991.671,678.855 1408.33,568.358 1824.99,457.861" style="fill:none;stroke:rgb(214,214,214);stroke-width:12px;"/>
                            </g>
                            <g transform="matrix(0.625,0,0,1,765.006,169.712)">
                                <path d="M575.014,1000.67C991.671,819.732 1408.33,638.797 1824.99,457.861" style="fill:none;stroke:rgb(48,89,238);stroke-width:12px;"/>
                            </g>
                        </g>
                    </g>
                </g>
                <g transform="matrix(0.625,0,0,1,1550,-5.68434e-14)">
                    <g transform="matrix(1.6,0,0,1,-2480,5.68434e-14)">
                        <g>
                            <g transform="matrix(0.625,0,0,1,765.006,49.6738)">
                                <path d="M575.014,577.9C991.671,537.887 1408.33,497.874 1824.99,457.861" style="fill:none;stroke:rgb(188,48,48);stroke-width:12px;"/>
                            </g>
                            <g transform="matrix(0.625,0,0,1,765.006,109.712)">
                                <path d="M575.014,789.352C991.671,678.855 1408.33,568.358 1824.99,457.861" style="fill:none;stroke:rgb(214,214,214);stroke-width:12px;"/>
                            </g>
                            <g transform="matrix(0.625,0,0,1,765.006,169.712)">
                                <path d="M575.014,1000.67C991.671,819.732 1408.33,638.797 1824.99,457.861" style="fill:none;stroke:rgb(48,89,238);stroke-width:12px;"/>
                            </g>
                        </g>
                    </g>
                </g>
                <g transform="matrix(0.625,0,0,1,1550,49.6738)">
                    <path d="M1824.99,700.567L1824.99,417.773" style="fill:none;stroke:black;stroke-width:12px;"/>
                </g>
                <g transform="matrix(0.625,0,0,1,1550,49.6738)">
                    <path d="M575.014,700.567L575.014,417.773" style="fill:none;stroke:black;stroke-width:12px;"/>
                </g>
            </g>
            <g id="lights">
                <g transform="matrix(0.533795,-0.3853,0.639986,1.24543,836.346,-1375.46)">
                    <path d="M187.351,958.844L722.705,2130.74L-348.003,2130.74L187.351,958.844Z" style="fill:url(#_Linear4);"/>
                </g>
                <g transform="matrix(-0.533795,-0.3853,-0.639986,1.24543,3763.65,-1375.46)">
                    <path d="M187.351,958.844L722.705,2130.74L-348.003,2130.74L187.351,958.844Z" style="fill:url(#_Linear5);"/>
                </g>
                <g transform="matrix(-0.625,2.22045e-16,1.11022e-16,1.45822,2417.09,-1961.72)">
                    <path d="M187.351,958.844L722.705,2130.74L-348.003,2130.74L187.351,958.844Z" style="fill:url(#_Linear6);"/>
                </g>
            </g>
        </g>
    </g>
    <defs>
        <radialGradient id="_Radial2" cx="0" cy="0" r="1" gradientUnits="userSpaceOnUse" gradientTransform="matrix(635.506,-787.568,641.179,780.599,1029.46,809.969)"><stop offset="0" style="stop-color:rgb(136,50,59);stop-opacity:1"/><stop offset="1" style="stop-color:rgb(13,0,39);stop-opacity:1"/></radialGradient>
        <radialGradient id="_Radial3" cx="0" cy="0" r="1" gradientUnits="userSpaceOnUse" gradientTransform="matrix(1441.59,651.407,-225.85,4157.89,1049.13,448.677)"><stop offset="0" style="stop-color:rgb(35,0,52);stop-opacity:1"/><stop offset="1" style="stop-color:rgb(19,0,29);stop-opacity:1"/></radialGradient>
        <linearGradient id="_Linear4" x1="0" y1="0" x2="1" y2="0" gradientUnits="userSpaceOnUse" gradientTransform="matrix(7.17582e-14,1171.9,-1171.9,7.17582e-14,187.351,958.844)"><stop offset="0" style="stop-color:white;stop-opacity:0.19"/><stop offset="1" style="stop-color:white;stop-opacity:0"/></linearGradient>
        <linearGradient id="_Linear5" x1="0" y1="0" x2="1" y2="0" gradientUnits="userSpaceOnUse" gradientTransform="matrix(7.17582e-14,1171.9,-1171.9,7.17582e-14,187.351,958.844)"><stop offset="0" style="stop-color:white;stop-opacity:0.17"/><stop offset="1" style="stop-color:white;stop-opacity:0"/></linearGradient>
        <linearGradient id="_Linear6" x1="0" y1="0" x2="1" y2="0" gradientUnits="userSpaceOnUse" gradientTransform="matrix(7.17582e-14,1171.9,-1171.9,7.17582e-14,187.351,958.844)"><stop offset="0" style="stop-color:white;stop-opacity:0.2"/><stop offset="1" style="stop-color:white;stop-opacity:0"/></linearGradient>
    </defs>
</svg>
