<?xml version="1.0" encoding="UTF-8" standalone="no"?>
<svg
   xmlns:dc="http://purl.org/dc/elements/1.1/"
   xmlns:cc="http://creativecommons.org/ns#"
   xmlns:rdf="http://www.w3.org/1999/02/22-rdf-syntax-ns#"
   xmlns:svg="http://www.w3.org/2000/svg"
   xmlns="http://www.w3.org/2000/svg"
   viewBox="0 0 372.05334 334.85333"
   height="334.85333"
   width="372.05334"
   xml:space="preserve"
   id="svg2"
   version="1.1"><metadata
     id="metadata8"><rdf:RDF><cc:Work
         rdf:about=""><dc:format>image/svg+xml</dc:format><dc:type
           rdf:resource="http://purl.org/dc/dcmitype/StillImage" /></cc:Work></rdf:RDF></metadata><defs
     id="defs6" /><g
     transform="matrix(1.3333333,0,0,-1.3333333,0,334.85333)"
     id="g10"><g
       transform="scale(0.1)"
       id="g12"><path
         id="path14"
         style="fill:#fbc707;fill-opacity:1;fill-rule:nonzero;stroke:none"
         d="M 0,2511.35 V 0 H 2790.39 V 2511.35 H 0" /><path
         id="path16"
         style="fill:#4a0c06;fill-opacity:1;fill-rule:nonzero;stroke:none"
         d="m 1461.59,1348.01 7.74,-16.04 27.69,28.78 -8.35,17.09 z m -61.22,2.2 8.27,-17.67 47,-5.52 -7.75,17.68 z m 298.93,59.63 c -40.06,-68.32 -56.38,-119.63 -5.25,-141.54 l 6.36,-2.22 5.52,24.31 c -1.24,0.81 -3.76,2.37 -3.76,2.37 -11.72,1.52 -32.81,24.76 4.88,109.9 z m 20.47,-4.99 c 23.23,-86.93 18.88,-94.97 4.03,-109.67 -4.47,-4.51 -9.02,-4.23 -9.02,-4.23 l 2.78,-25.42 c 0,0 8.22,2.3 14.21,5.82 28.86,16.91 37.21,53.9 -4.83,136.84 z m -11.66,33.19 -3.8,-13.82 c 11.05,-4.99 33.14,-12.92 33.67,23.76 0.57,35.44 18.82,33.17 16.59,62.48 -1.64,21.99 -29,20.26 -34.27,18.83 -9.92,-2.77 -17.7,-10.51 -17.7,-10.51 l 7.78,-15.5 c 9.92,8.31 21,8.31 23.72,0.53 3.96,-10.93 -11.58,-20.39 -14.86,-30.93 -3.37,-10.52 1.85,-27.21 -1.12,-34.27 -1.68,-3.9 -10.01,-0.57 -10.01,-0.57 z m -310.03,68 c 103.37,16.61 203.6,88.84 222.63,103.15 31.84,23.92 87.4,57.63 103.06,65.38 62.56,30.93 86.53,46.25 95.61,53.66 34.43,28.02 42.65,52.38 26.66,78.97 -23.79,39.57 -74.88,47.36 -116.72,49.73 -4.97,0.27 -10.16,0.42 -15.45,0.42 -35.2,0 -66.78,-6.08 -68.09,-6.33 l -13.95,-2.75 c 0,0 -1.37,7.54 -1.84,9.1 -0.67,3.02 -2.9,11.67 -4.71,16.04 -11.33,30.06 -42.48,98.03 -53.71,118.11 -3.05,6.1 -7.63,11.06 -9.49,12.88 -9.17,9.21 -26.61,19.4 -49.24,19.4 -11.98,0 -24.48,-2.76 -37.15,-8.22 -40.41,-17.37 -54.21,-79.04 -57.48,-97.54 -0.92,-5.24 -23.72,-98.11 -23.72,-98.11 l -26.87,-114.59 -14.55,46.31 c -65.17,-27.64 -126.08,-78.88 -146.71,-126.47 -11.59,-26.75 -13.23,-51.48 -4.73,-71.52 21,-37.44 58.59,-54.87 118.3,-54.87 22.25,0 47.8,2.37 78.15,7.25 z m 465.23,269.45 c -1.91,-17.47 -7.85,-30.18 -16.06,-45.56 -1.09,-2.13 -3.95,-6.33 -6.75,-9.71 -21.51,-25.72 -66.53,-51.56 -92.06,-62.86 -2.72,-1.21 -16.98,-7.09 -27.16,-12.88 -1.35,-0.76 -6.55,-4.07 -7.97,-5 -12.82,-8.47 -27.31,-19.03 -42.72,-30.71 -29.5,-22.35 -98.98,-67.87 -159.94,-94.89 -48.88,-21.68 -128.99,-31.38 -186.7,-31.38 -8.03,0 -27.6,1.04 -34.72,2.06 -10.22,1.63 -19.97,3.31 -28.85,6.59 -13.72,5.07 -25.44,11.71 -34.18,17.55 35.02,-45.82 90.88,-69.02 166.38,-69.02 8.02,0 15.96,0.46 23.89,0.96 l -14.85,-75.78 17.69,-1.07 14.64,78.35 c 5.89,0.61 11.83,1.14 17.59,1.97 l -15.63,-83.12 16.53,-2.22 16.13,87.48 -0.19,0.72 c 33.49,5.95 63.54,14.44 86.04,22.01 l 1.16,-0.87 37.22,-10.73 -55.59,-4.97 -1.38,-19.92 85.7,9.43 2.25,21.01 -37.34,13.78 -4.59,2.21 c 0.39,0.15 0.97,0.36 1.34,0.51 105.33,41.68 146.81,74.45 147.32,74.84 109.44,81.56 125.49,137.53 132.13,169.48 0.25,1.18 0.93,4.99 1.42,8.29 0.08,0.57 0.68,6.84 0.71,7.64 0.72,13.37 0.63,25.36 -1.46,35.81 z m -748.42,-251.55 v 177.44 c -59.78,-64.13 -64.29,-122.56 0,-177.44 z m -91.31,-286.88 c -11.11,5.09 -19.83,13.51 -25.236,19.82 -5.406,6.31 -7.711,16.58 -0.496,24.7 7.202,8.11 18.522,-3.08 18.522,-3.08 0,0 0,-21.62 4.5,-31.53 4.51,-9.91 2.71,-9.91 2.71,-9.91 z m 148.08,87.7 c -22.79,8.86 -49.86,8.42 -49.86,8.42 19.23,-2.4 56.47,-16.82 49.86,-33.05 -6.6,-16.22 -31.24,-27.63 -59.47,-28.23 -28.24,-0.6 -42.65,4.81 -56.47,13.82 -13.82,9 -10.85,23.47 -1.2,31.84 11.41,9.9 33.94,15.76 33.94,15.76 -48.66,1.8 -66.39,-28.98 -66.39,-28.98 -12.16,6.6 -21.76,6.34 -28.793,5.01 -4.843,-0.93 -8.691,-2.59 -13.281,-6.49 -5.937,-5.74 -11.066,-16.13 -8.387,-33.36 3.301,-21.23 19.938,-35.79 31.001,-43.4 4.58,-3.28 10.5,-6.52 16.62,-8.27 8.25,-2.4 17.26,-3.6 17.26,-3.6 6.61,-8.41 20.13,-45.78 22.53,-51.19 2.4,-5.41 2.1,-19.7 27.94,-23.91 25.83,-4.21 38.44,0.6 49.26,4.8 8.11,3.16 11.49,9.36 13.18,14.28 0.25,0.74 2.45,6.93 3.77,10.49 0.45,1.19 1.56,3.63 1.9,4.31 2.56,5.04 6.33,11.99 11.79,21.99 10.82,19.82 24.03,52.87 24.03,52.87 10.21,22.07 11.41,35.29 10.21,46.1 -1.8,13.82 -12.01,24.04 -29.44,30.79 z m -56.77,633.28 v -256.66 c 0.22,0.23 0.35,0.4 0.55,0.65 66.36,70.75 70.24,173.03 -0.55,256.01 z m 0,-434.11 v -147.58 c -28.83,-25.27 -19.3,-62.91 -3.58,-86.73 l 3.58,-5.66 v 5.66 86.71 c 25,21.85 69.67,88.5 0.55,147.1 -0.2,0.18 -0.33,0.33 -0.55,0.5 z m 939.77,-207.14 c -4.78,-12.56 -9.95,-24.95 -15.42,-37.16 h 703.28 v 37.16 z m -1314.672,0 H 52.1328 v -37.16 H 755.41 c -5.469,12.21 -10.64,24.6 -15.422,37.16 z M 1397.36,947.66 c -341.22,0 -618.778,277.65 -618.778,618.79 0,341.23 277.558,618.8 618.778,618.8 341.24,0 618.8,-277.57 618.8,-618.8 0,-341.14 -277.56,-618.79 -618.8,-618.79 z m 669.96,618.79 c 0,369.5 -300.55,670.04 -669.96,670.04 -369.48,0 -670.032,-300.54 -670.032,-670.04 0,-121.48 32.672,-235.42 89.449,-333.77 H 52.1328 V 47.6211 H 2742.52 V 1232.68 h -764.65 c 56.78,98.35 89.45,212.29 89.45,333.77" /><path
         id="path18"
         style="fill:#ffffff;fill-opacity:1;fill-rule:nonzero;stroke:none"
         d="m 2026.77,738.09 h 31.7 c 0,0 0.39,-101.36 0.39,-144.512 0,-31.258 -3.88,-61.476 -12.49,-74.797 -7.76,-11.269 -17.24,-19.48 -33.18,-19.48 -15.08,0 -26.72,5.64 -34.9,16.91 -9.05,13.328 -14.86,31.258 -14.43,69.687 V 738.09 h 30.16 v 45.98 h -126.89 v -45.98 h 21.55 l -0.01,-157.32 c 0,-38.942 6.04,-78.391 30.17,-104 22.4,-24.598 48.68,-32.29 86.6,-32.29 39.2,0 61.6,14.86 78.41,35.872 15.51,18.949 31.66,57.378 31.66,123.476 V 738.09 h 21.34 v 45.98 H 2026.77 Z M 1448.19,576.16 h -3 l -62.06,207.91 h -110.18 v -46.98 h 23.62 V 495.379 h -23.62 v -45.801 h 101.79 v 45.801 h -29.09 v 182.23 h 4.31 l 65.49,-208.531 h 37.06 l 66.78,199.301 h 4.17 v -173 h -25.93 v -45.801 h 114.94 v 45.801 h -23.19 V 737.09 h 23.19 v 46.98 H 1511.53 C 1491.28,719 1448.19,576.16 1448.19,576.16 Z m 1095.13,-35.558 -14.58,-45.223 h -60.02 v 100.25 h 0.43 66.32 v 46.09 h -66.32 v 95.371 h 56.46 l 8,-44.969 h 44.53 l -4.29,91.949 h -202.5 v -46.98 h 24.56 l -0.02,-241.711 h -24.54 v -45.801 h 202.5 l 16.36,91.024 z m -268.55,111.386 c -40.92,16.391 -50.83,21.012 -50.83,47.133 0,13.328 6.03,23.059 11.63,28.18 6.89,6.148 15.94,9.23 26.29,9.23 8.18,0 15.5,-2.57 20.67,-7.179 0.86,-1.024 1.3,-2.051 1.73,-4.102 l 8.52,-40.988 h 47.42 c 0.02,0 0.04,0.008 0.04,0.008 -2.13,31.761 -3.85,63.531 -6.44,95.289 -9.9,4.621 -33.61,9.23 -58.6,9.23 -42.65,0 -73.67,-12.301 -93.06,-33.82 -17.67,-18.438 -28.43,-44.059 -28.43,-74.809 0,-52.25 36.18,-82.488 78.84,-101.441 31.88,-14.348 43.95,-19.457 43.95,-44.571 0,-11.789 -3.44,-21.007 -9.91,-27.16 -7.32,-7.687 -18.96,-10.758 -31.02,-10.758 -9.92,0 -19.82,3.071 -26.71,8.711 -1.3,1.02 -2.59,3.59 -3.02,5.129 l -9.65,41.391 h -49.75 c 3,-32.063 6.43,-63.641 9.85,-96.223 17.66,-8.187 49.55,-10.758 67.22,-10.758 43.51,0 71.95,10.25 92.62,30.231 20.26,19.988 30.6,49.699 30.6,79.93 0,49.187 -24.56,77.371 -71.96,97.347 z M 1799.66,495.379 h -60.02 v 100.25 h 66.75 v 46.09 h -66.32 v 95.371 h 56.45 l 8.01,-44.969 h 44.53 l -4.29,91.949 h -202.5 v -46.98 h 24.56 l -0.02,-241.711 h -24.54 v -45.801 h 202.5 l 16.36,91.024 h -46.89 z m -1432.117,0 h -61.277 v 241.902 h 28.797 V 784.07 H 209.469 v -46.789 h 23.699 L 233.164,495.379 H 208.816 V 449.578 H 408.09 l 18.418,101.883 h -47.231 z m 168.531,79.25 c -0.863,0 -0.863,1.019 -0.433,3.062 9.48,35.348 19.386,73.27 28.867,110.161 h 2.582 c 9.48,-38.43 19.394,-77.872 28.871,-113.223 z M 608.023,784.07 H 549 L 458.758,495.379 h -22.43 v -45.801 h 103.84 v 45.801 h -23.645 l 7.563,34.07 h 80.488 c 0.864,0 1.731,0.09 2.59,-1.961 1.496,-5.359 8.813,-32.109 8.813,-32.109 h -23.899 v -45.801 h 120.641 v 45.801 H 690.75 Z M 1185.92,495.379 h -60.02 v 100.25 h 66.75 v 46.09 h -66.32 v 95.371 h 56.45 l 8.01,-44.969 h 44.54 l -4.31,91.949 -202.5,-0.129 V 737.09 h 24.57 l -0.02,-241.711 h -24.55 v -45.801 h 202.5 l 16.37,91.024 H 1200.5 Z M 928.969,651.988 c -40.934,16.391 -50.84,21.012 -50.84,47.133 0,13.328 6.031,23.059 11.633,28.18 6.894,6.148 15.941,9.23 26.281,9.23 8.184,0 15.508,-2.57 20.68,-7.179 0.863,-1.024 1.293,-2.051 1.722,-4.102 l 8.532,-40.988 h 47.425 c 0.016,0 0.036,0.008 0.036,0.008 -2.133,31.761 -3.856,63.531 -6.442,95.289 -9.91,4.621 -33.605,9.23 -58.598,9.23 -42.656,0 -73.671,-12.301 -93.066,-33.82 -17.66,-18.438 -28.434,-44.059 -28.434,-74.809 0,-52.25 36.192,-82.488 78.844,-101.441 31.891,-14.348 43.949,-19.457 43.949,-44.571 0,-11.789 -3.445,-21.007 -9.906,-27.16 -7.324,-7.687 -18.961,-10.758 -31.023,-10.758 -9.91,0 -19.821,3.071 -26.711,8.711 -1.293,1.02 -2.586,3.59 -3.016,5.129 l -9.656,41.391 h -49.746 c 3.004,-32.063 6.426,-63.641 9.855,-96.223 17.66,-8.187 49.547,-10.758 67.211,-10.758 43.516,0 71.949,10.25 92.633,30.231 20.25,19.988 30.588,49.699 30.588,79.93 0,49.187 -24.553,77.371 -71.951,97.347" /><path
         id="path20"
         style="fill:#ffffff;fill-opacity:1;fill-rule:nonzero;stroke:none"
         d="m 2573.85,831.039 c -25.1,0 -45.34,20.242 -45.34,45.332 0,25.09 20.24,45.34 45.34,45.34 25.08,0 45.33,-20.25 45.33,-45.34 0,-25.09 -20.25,-45.332 -45.33,-45.332 z m 0,98.359 c -29.23,0 -53.04,-23.808 -53.04,-53.027 0,-29.223 23.81,-53.019 53.04,-53.019 29.22,0 53.02,23.796 53.02,53.019 0,29.219 -23.8,53.027 -53.02,53.027 z m -1.71,-49.738 h -9.85 v 20.66 h 13.7 c 6.55,0 13.68,-2.281 13.68,-10.121 0,-10.121 -9.12,-10.539 -17.53,-10.539 z m 25.22,10.539 c 0,10.981 -5.41,16.973 -19.24,16.973 H 2554.6 V 846 h 7.69 v 26.809 h 10.98 L 2591.52,846 h 8.69 l -18.24,26.809 c 8.27,1.429 15.39,6.132 15.39,17.39" /></g></g></svg>